<?xml version="1.0" encoding="iso-8859-1"?>
<!-- Generator: Adobe Illustrator 21.0.0, SVG Export Plug-In . SVG Version: 6.00 Build 0)  -->
<svg xmlns="http://www.w3.org/2000/svg" xmlns:xlink="http://www.w3.org/1999/xlink" version="1.1" id="Capa_1" x="0px" y="0px" viewBox="0 0 512 512" style="enable-background:new 0 0 512 512;" xml:space="preserve" width="512" height="512">
<g>
	<path style="fill:#87553C;" d="M482.865,272.948L453.96,154.917c-3.421-38.197-28.987-70.59-65.441-82.745   C345.387,57.791,300.465,50.499,255,50.499c-45.464,0-90.387,7.292-133.519,21.673C85.028,84.327,59.461,116.72,56.04,154.917   L27.034,273.359C9.68,344.221,40.76,418.042,103.899,455.037l51.416,30.126c60.8,35.624,136.485,35.822,197.519,0.358   l52.651-30.594C468.759,418.16,500.324,344.238,482.865,272.948z"/>
	<path style="fill:#72462E;" d="M482.865,272.948L453.96,154.917c-3.421-38.197-28.987-70.59-65.441-82.745   C345.387,57.791,300.465,50.499,255,50.499c-0.167,0-0.333,0.005-0.5,0.005v461.494c33.99-0.021,67.986-8.844,98.334-26.478   l52.651-30.594C468.759,418.16,500.324,344.238,482.865,272.948z"/>
	<path style="fill:#E6E6E6;" d="M254.273,248.99c-55.015,0-99.772,44.77-99.772,99.799v16.459   c0,54.299,43.848,99.799,100.228,99.799c55.015,0,99.772-44.77,99.772-99.799v-16.459C354.5,294.489,310.652,248.99,254.273,248.99   z"/>
	<path style="fill:#D9D9D9;" d="M254.5,248.99v216.057c55.734,0,100-45.167,100-99.799v-16.459   C354.5,294.233,310.304,248.99,254.5,248.99z"/>
	<path style="fill:#87553C;" d="M277.373,320.822h-46c-13.312,0-20.049,16.168-10.606,25.613l18.734,18.739v36.856   c0,8.286,6.716,15.004,15,15.004c8.284,0,15-6.718,15-15.004v-37.111l18.479-18.484C297.39,337.022,290.73,320.822,277.373,320.822   z"/>
	<path style="fill:#72462E;" d="M277.373,320.822H254.5v96.212c8.284,0,15-6.718,15-15.004v-37.111l18.479-18.484   C297.39,337.022,290.73,320.822,277.373,320.822z"/>
	<circle style="fill:#FEC03F;" cx="182.5" cy="205.559" r="14.999"/>
	<circle style="fill:#ED961F;" cx="336.5" cy="205.559" r="14.999"/>
	<path style="fill:#72462E;" d="M443.77,173.04c-4.471-14.77-4.549-14.635-4.75-16.784c-2.88-32.198-24.57-59.616-55.24-69.848   c-23.927-7.988-41.449-11.374-46.95-12.633c13.669-60.233,83.045-92.36,134.26-62.396C536.506,49.66,518.635,150.342,443.77,173.04   z"/>
	<path style="fill:#87553C;" d="M175.04,73.183c-15.678,3.699-29.145,6.649-48.81,13.223c-30.68,10.233-52.37,37.65-55.25,69.848   c-0.165,1.903-0.034,1.165-4.96,16.094C-7.495,148.048-23.473,49.07,40.9,11.377C91.698-18.335,160.793,12.931,175.04,73.183z"/>
</g>















</svg>
