<svg height="512pt" viewBox="-4 0 512 512.00045" width="512pt" xmlns="http://www.w3.org/2000/svg"><path d="m293.902344.117188c-4.453125-.761719-8.621094 2.25-9.351563 6.679687l-8.125 48.761719c-.738281 4.429687 2.253907 8.613281 6.683594 9.351562.449219.078125.894531.113282 1.339844.113282 3.90625 0 7.347656-2.820313 8.007812-6.789063l8.125-48.761719c.738281-4.429687-2.253906-8.617187-6.679687-9.355468zm0 0" fill="#6d5c16"/><path d="m250.332031 6.25c-2.113281-3.960938-7.035156-5.453125-11-3.339844-3.953125 2.117188-5.453125 7.039063-3.332031 10.996094l25.019531 46.820312c1.460938 2.738282 4.269531 4.296876 7.175781 4.296876 1.292969 0 2.605469-.308594 3.828126-.960938 3.949218-2.117188 5.449218-7.039062 3.332031-10.996094zm0 0" fill="#6d5c16"/><path d="m255.566406 57.753906-48.761718-24.382812c-4.015626-2.007813-8.886719-.382813-10.902344 3.636718-2.007813 4.015626-.382813 8.894532 3.632812 10.902344l48.761719 24.382813c1.167969.582031 2.40625.855469 3.628906.855469 2.984375 0 5.847657-1.640626 7.277344-4.492188 2.007813-4.015625.378906-8.894531-3.636719-10.902344zm0 0" fill="#6d5c16"/><path d="m349.457031 56.894531-32.507812-16.253906 8.125-24.378906 1.253906.414062c13.8125 4.605469 23.128906 25.660157 23.128906 40.21875zm0 0" fill="#e7b900"/><path d="m308.820312 512 32.507813-56.886719 32.507813 56.886719zm0 0" fill="#06aae9"/><path d="m341.328125 455.113281 32.507813 56.886719 32.507812-56.886719zm0 0" fill="#f40e34"/><path d="m243.808594 512 32.503906-56.886719 32.507812 56.886719zm0 0" fill="#06aae9"/><path d="m276.3125 455.113281 32.507812 56.886719 32.507813-56.886719zm0 0" fill="#f40e34"/><path d="m373.835938 512 32.507812-56.886719 32.507812 56.886719zm0 0" fill="#06aae9"/><path d="m410.894531 136.78125 11.703125 17.636719-24.378906 16.253906h-24.382812l-81.269532 56.886719 16.253906-56.886719-16.253906-8.125h-16.253906l-16.253906-32.507813 16.253906 8.125 8.128906-8.125 8.125-16.253906-8.125-16.257812h-8.128906l-8.125-16.253906-16.253906 16.257812-8.125-24.382812 16.253906-16.253907h32.507812l24.378907-16.253906 48.761719 16.253906 8.125-24.378906 10.890624 7.230469c8.453126 5.609375 13.492188 15.117187 13.492188 25.277344l24.378906 8.125-11.703125 17.636718-4.550781 6.742188 6.746094 4.554687 17.636718 11.703125-17.636718 11.699219-6.746094 4.554687zm0 0" fill="#ffd422"/><path d="m390.089844 414.476562-48.761719-16.253906 16.253906 32.507813-8.125 24.382812h-48.761719v-24.382812l16.253907-8.125-16.253907-24.382813-7.476562-11.214844v-.082031l-8.777344-13.082031 10.96875-18.285156 8.128906-13.574219 5.28125-8.777344 8.128907-48.761719-40.636719 32.507813-40.632812-24.378906h-3.574219c-7.476563 0-13.980469-5.039063-15.765625-12.269531-2.519532-10.324219 5.199218-20.238282 15.765625-20.238282h11.703125l2.84375 1.953125 13.003906 8.613281 8.53125 5.6875 4.472656-9.019531 7.3125-14.464843 6.09375-12.355469 6.503906-12.917969 81.269532-56.890625h24.378906l8.128906 32.507813v48.761718l.730469 8.046875 1.542969 16.660157 1.382812 15.113281 2.519532 28.039062.8125 9.347657 1.136718 12.1875 8.128906 32.507812zm0 0" fill="#ffd422"/><path d="m390.089844 414.476562 8.128906 16.253907v24.382812h-48.761719l8.125-24.382812-16.253906-32.503907zm0 0" fill="#e7b900"/><path d="m292.566406 227.558594-16.253906 32.507812-40.632812-40.632812h-3.574219c-7.480469 0-13.980469-5.039063-15.765625-12.273438-2.519532-10.320312 5.199218-20.234375 15.765625-20.234375h11.703125l11.539062 9.589844 12.109375 10.078125 6.175781 5.199219 10.644532 8.859375zm0 0" fill="#e7b900"/><path d="m503.867188 300.296875c0 5.363281-2.683594 10.320313-7.070313 13.246094-.488281.324219-.976563.730469-1.464844 1.054687-3.65625 2.765625-6.417969 6.339844-8.207031 10.40625v.078125c-.488281 1.058594-.894531 2.035157-1.21875 3.171875-1.136719 3.574219-1.464844 7.3125-1.058594 11.050782.082032.652343.164063 1.382812.324219 2.03125.164063 1.222656.488281 2.359374.894531 3.496093l1.546875 4.632813 2.191407 6.582031c.976562 2.84375 1.464843 5.769531 1.546874 8.695313v.894531c0 6.664062-2.195312 13.164062-6.339843 18.449219-.730469 1.058593-1.542969 2.03125-2.519531 3.007812-3.085938 3.085938-6.746094 5.445312-10.644532 6.90625-9.753906 3.738281-21.132812 2.277344-29.746094-4.550781l-.082031-.082031-11.132812-8.9375-8.289063-6.585938-8.125-32.507812 29.824219 24.871093 3.332031 2.761719 1.546875 1.300781c1.378907.894531 3.003907 1.300781 4.550781 1.300781.324219 0 .648438 0 .972657-.082031.246093 0 .570312-.082031.8125-.082031 1.625-.324219 3.253906-1.21875 4.46875-2.4375.898437-.894531 1.628906-1.949219 2.035156-3.089844.078125-.078125.078125-.160156.078125-.242187.488281-1.300781.652344-2.683594.40625-4.0625v-.324219l-1.867188-11.296875-.164062-.734375c-.40625-2.601562-.730469-5.28125-.8125-7.882812-.082031-.324219-.082031-.566407-.082031-.894532-.160157-1.300781-.160157-2.519531-.160157-3.816406 0-3.660156.242188-7.398438.8125-10.972656 0-.164063.078126-.40625.078126-.570313.976562-6.417969 2.765624-12.59375 5.285156-18.609375 2.03125-4.792968 4.632812-9.34375 7.71875-13.652344.40625-.730468.894531-1.382812 1.382812-2.03125 3.007813-3.984374 7.71875-6.339843 12.757813-6.339843h.566406c4.390625 0 8.371094 1.789062 11.21875 4.632812 2.84375 2.84375 4.632813 6.824219 4.632813 11.214844zm0 0" fill="#e7b900"/><path d="m341.328125 130.039062v-8.128906h-32.507813v-24.378906h-24.378906l8.125 16.253906-16.253906 16.253906h-16.253906l24.382812 24.378907zm0 0" fill="#f40e34"/><path d="m308.820312 170.671875h65.015626l-81.269532 56.886719zm0 0" fill="#ebe5dd"/><path d="m373.835938 32.515625-8.125 24.378906 8.125 8.128907h24.382812c0-10.15625-5.078125-19.636719-13.523438-25.269532zm0 0" fill="#e7b900"/><path d="m357.582031 130.039062c0 8.976563-7.277343 16.253907-16.253906 16.253907s-16.253906-7.277344-16.253906-16.253907c0-8.976562 7.277343-16.253906 16.253906-16.253906s16.253906 7.277344 16.253906 16.253906zm0 0" fill="#f40e34"/><path d="m495.332031 314.597656c-3.65625 2.765625-6.417969 6.339844-8.207031 10.402344-1.953125-.078125-3.820312-.894531-5.285156-2.273438l-16.253906-16.253906c2.035156-4.796875 4.632812-9.347656 7.722656-13.65625 1.460937.328125 2.761718 1.058594 3.820312 2.113282l16.253906 16.253906c.976563.976562 1.625 2.113281 1.949219 3.414062zm0 0" fill="#6d5c16"/><path d="m485.90625 328.253906c-1.136719 3.574219-1.460938 7.3125-1.058594 11.050782.082032.648437.164063 1.382812.328125 2.03125h-25.519531c-.082031-.324219-.082031-.566407-.082031-.894532-.160157-1.300781-.160157-2.519531-.160157-3.816406 0-3.660156.242188-7.398438.8125-10.972656 0-.164063.078126-.40625.078126-.570313h26.820312c-.488281 1.058594-.894531 2.03125-1.21875 3.171875zm0 0" fill="#6d5c16"/><path d="m491.351562 364.742188c-1.136718.648437-2.355468.972656-3.738281.972656h-24.382812c-.40625 0-.8125 0-1.136719-.078125.488281-1.382813.652344-2.925781.40625-4.390625l-1.867188-11.296875c.8125-.324219 1.707032-.484375 2.597657-.484375h24.382812l2.195313 6.582031c.972656 2.84375 1.460937 5.769531 1.542968 8.695313zm0 0" fill="#6d5c16"/><path d="m485.011719 384.082031c-.730469 1.058594-1.542969 2.035157-2.519531 3.007813-3.085938 3.089844-6.746094 5.445312-10.644532 6.90625l-22.511718-22.511719c-.730469-.730469-1.300782-1.625-1.707032-2.519531l1.542969 1.300781c1.382813.894531 3.007813 1.300781 4.550781 1.300781.328125 0 .652344 0 .976563-.082031.242187 0 .570312-.078125.8125-.078125 1.625-.328125 3.25-1.222656 4.46875-2.441406.894531-.890625 1.625-1.949219 2.03125-3.085938.082031-.082031.082031-.164062.082031-.242187.488281-1.300781.652344-2.683594.40625-4.066407zm0 0" fill="#6d5c16"/><path d="m455.105469 373.84375c0 2.113281-.8125 4.144531-2.355469 5.769531l-8.128906 8.125c-.730469.734375-1.625 1.300781-2.515625 1.707031l-.082031-.078124-11.132813-8.941407c.324219-1.625 1.054687-3.085937 2.191406-4.226562l8.128907-8.125c.894531-.894531 1.949218-1.546875 3.085937-1.871094l4.878906 4.066406c1.378907.894531 3.003907 1.300781 4.550781 1.300781.324219 0 .648438 0 .972657-.082031.324219.730469.40625 1.542969.40625 2.355469zm0 0" fill="#6d5c16"/><path d="m8.125 219.433594 32.507812 40.632812 32.507813-16.253906-16.253906-48.761719zm0 0" fill="#e7b900"/><path d="m73.140625 243.8125 16.253906 24.382812-8.125 8.125v24.382813h-32.507812l-8.128907-40.636719zm0 0" fill="#f0beb4"/><path d="m81.269531 300.703125 24.378907 40.632813-32.507813 8.128906-8.125-48.761719zm0 0" fill="#ffd422"/><path d="m65.015625 300.703125 8.125 48.761719v16.253906l-40.632813 40.632812 16.253907-65.015624-24.378907 32.507812-16.257812-16.253906 40.636719-56.886719zm0 0" fill="#f40e34"/><path d="m73.140625 349.464844 24.382813-8.128906v24.382812l16.253906 8.125-8.128906 81.269531v40.632813l16.253906 16.253906h-40.632813v-97.523438l-16.253906 40.636719-24.382813 56.886719h-32.507812l16.257812-24.378906 16.25-40.636719 8.128907-56.886719 24.378906-24.378906zm0 0" fill="#06aae9"/><path d="m105.648438 446.984375h-24.378907v65.015625h40.632813l-16.253906-16.253906zm0 0" fill="#884d00"/><path d="m65.015625 455.113281-24.382813-8.128906-16.25 40.636719-16.257812 24.378906h32.507812zm0 0" fill="#884d00"/><path d="m138.15625 243.8125 16.253906 8.128906 16.253906-24.382812-24.378906-24.378906zm0 0" fill="#ebe5dd"/><path d="m56.878906 130.039062c-1.222656 0-2.457031-.273437-3.625-.859374l-20.628906-10.3125c-20.125-10.0625-32.625-30.292969-32.625-52.792969 0-23.644531 14.039062-44.933594 35.777344-54.246094l4.0625-1.742187c15.984375-6.863282 34.34375-6.863282 50.359375 0 23.648437 10.136718 36.15625 36.4375 29.085937 61.183593l-1.199218 4.191407c-2.039063 7.140624-.046876 14.839843 5.199218 20.09375l1.839844 1.824218c4.792969 4.796875 12.136719 6.167969 18.34375 3.402344 11.585938-5.175781 19.070312-16.714844 19.070312-29.40625 0-4.488281 3.632813-8.125 8.125-8.125 4.492188 0 8.128907 3.636719 8.128907 8.125 0 19.097656-11.261719 36.460938-28.699219 44.242188-12.277344 5.492187-26.9375 2.792968-36.453125-6.734376l-1.839844-1.828124c-9.429687-9.4375-13-23.246094-9.351562-36.050782l1.199219-4.199218c4.835937-16.898438-3.707032-34.855469-19.855469-41.777344-11.9375-5.117188-25.617188-5.113282-37.554688-.003906l-4.066406 1.742187c-15.746094 6.75-25.917969 22.179687-25.917969 39.308594 0 16.304687 9.054688 30.964843 23.640625 38.253906l20.628907 10.3125c4.015624 2.007813 5.640624 6.890625 3.632812 10.90625-1.425781 2.847656-4.292969 4.492187-7.277344 4.492187zm0 0" fill="#ff9811"/><path d="m8.125 357.589844-8.125 16.253906v24.382812h16.253906l8.128906-24.382812zm0 0" fill="#ebe5dd"/><g fill="#6d5c16"><path d="m407.074219 259.984375c-.242188.082031-.484375.082031-.730469.082031h-23.082031l-23.078125 7.722656c-.894532.242188-1.789063.40625-2.601563.40625-3.410156 0-6.582031-2.113281-7.71875-5.527343-1.382812-4.308594.894531-8.859375 5.121094-10.320313l24.378906-8.128906c.894531-.242188 1.707031-.40625 2.601563-.40625h24.378906v8.128906zm0 0"/><path d="m410 291.761719c-.324219.164062-.648438.246093-1.054688.40625l-23.894531 7.964843-15.683593 7.800782c-1.21875.652344-2.4375.894531-3.660157.894531-3.003906 0-5.851562-1.625-7.230469-4.46875-2.03125-4.0625-.40625-8.941406 3.574219-10.890625l16.253907-8.125c.328124-.246094.734374-.328125 1.058593-.488281l24.378907-8.128907c1.625-.566406 3.332031-.566406 4.878906-.078124zm0 0"/><path d="m406.34375 211.304688v16.253906h-32.507812c-4.46875 0-8.125-3.65625-8.125-8.125s3.65625-8.125 8.125-8.125h32.507812zm0 0"/><path d="m406.34375 130.039062 4.550781 6.742188c-1.300781.894531-2.84375 1.382812-4.550781 1.382812h-24.378906c-4.472656 0-8.128906-3.65625-8.128906-8.125s3.65625-8.128906 8.128906-8.128906h24.378906c2.765625 0 5.28125 1.464844 6.746094 3.578125zm0 0"/><path d="m413.089844 102.082031c-1.464844 2.113281-3.980469 3.574219-6.746094 3.574219h-24.378906c-4.472656 0-8.128906-3.65625-8.128906-8.125s3.65625-8.128906 8.128906-8.128906h24.378906c1.707031 0 3.25.488281 4.550781 1.382812l-4.550781 6.746094zm0 0"/><path d="m316.949219 65.023438c-4.492188 0-8.128907 3.636718-8.128907 8.125 0 4.488281 3.636719 8.128906 8.128907 8.128906 4.484375 0 8.125 3.644531 8.125 8.125 0 4.488281 3.636719 8.125 8.128906 8.125s8.125-3.636719 8.125-8.125c0-13.445313-10.933594-24.378906-24.378906-24.378906zm0 0"/><path d="m316.054688 247.46875c-1.382813 2.847656-4.226563 4.472656-7.234376 4.472656-1.21875 0-2.4375-.246094-3.65625-.894531l-16.253906-8.125c-1.21875-.570313-2.195312-1.464844-2.84375-2.441406l6.5-12.917969c1.21875 0 2.4375.324219 3.65625.890625l16.253906 8.128906c3.984376 1.949219 5.609376 6.824219 3.578126 10.886719zm0 0"/><path d="m299.800781 271.851562c-1.382812 2.84375-4.226562 4.46875-7.230469 4.46875-1.222656 0-2.441406-.242187-3.660156-.894531l-16.253906-8.125 7.316406-14.46875 16.253906 8.128907c3.980469 1.949218 5.605469 6.828124 3.574219 10.890624zm0 0"/><path d="m267.457031 206.59375c-.40625.890625-.976562 1.707031-1.625 2.355469l-8.128906 8.125c-1.625 1.546875-3.65625 2.359375-5.769531 2.359375-2.113282 0-4.144532-.8125-5.769532-2.359375-3.167968-3.167969-3.167968-8.371094 0-11.539063l8.125-8.125c.328126-.328125.734376-.652344 1.058594-.894531zm0 0"/><path d="m284.277344 220.652344c-.160156 1.707031-.972656 3.332031-2.191406 4.550781l-8.128907 8.125c-1.625 1.546875-3.65625 2.359375-5.769531 2.359375s-4.144531-.8125-5.769531-2.359375c-3.167969-3.167969-3.167969-8.371094 0-11.539063l8.125-8.125c.894531-.894531 1.953125-1.546874 3.089843-1.871093zm0 0"/><path d="m293.425781 345.828125c-2.007812 4.015625-.382812 8.898437 3.632813 10.90625l16.253906 8.125c1.167969.582031 2.40625.859375 3.628906.859375 2.984375 0 5.847656-1.644531 7.277344-4.492188 2.007812-4.015624.382812-8.898437-3.636719-10.90625l-16.253906-8.125c-4.015625-2.007812-8.894531-.382812-10.902344 3.632813zm0 0"/><path d="m316.949219 381.96875h-16.253907c-4.492187 0-8.128906 3.640625-8.128906 8.128906 0 4.488282 3.636719 8.125 8.128906 8.125h16.253907c4.492187 0 8.125-3.636718 8.125-8.125 0-4.488281-3.632813-8.128906-8.125-8.128906zm0 0"/><path d="m387.710938 368.097656c-3.175782-3.175781-8.320313-3.175781-11.492188 0-3.175781 3.175782-3.175781 8.316406 0 11.492188l16.253906 16.253906c1.585938 1.585938 3.667969 2.382812 5.746094 2.382812s4.15625-.796874 5.742188-2.382812c3.175781-3.175781 3.175781-8.316406 0-11.492188zm0 0"/><path d="m259.65625 270.632812c-.328125 1.21875-1.058594 2.4375-1.953125 3.332032l-8.125 8.125c-1.625 1.546875-3.660156 2.359375-5.769531 2.359375-2.113282 0-4.148438-.8125-5.773438-2.359375-3.167968-3.167969-3.167968-8.371094 0-11.539063l8.128906-8.125c.160157-.164062.324219-.328125.484376-.40625zm0 0"/><path d="m413.332031 329.144531c-1.378906 2.441407-3.980469 4.066407-6.988281 4.066407h-16.253906c-4.46875 0-8.125-3.660157-8.125-8.128907s3.65625-8.125 8.125-8.125h16.253906c2.441406 0 4.632812 1.136719 6.179688 2.84375zm0 0"/></g><path d="m316.949219 284.449219-8.128907 48.757812h32.507813zm0 0" fill="#ebe5dd"/><path d="m16.253906 292.574219c-2.082031 0-4.160156-.792969-5.746094-2.378907-3.175781-3.175781-3.175781-8.320312 0-11.492187l24.382813-24.382813c.617187-.617187 1.332031-1.128906 2.109375-1.523437l32.507812-16.253906c.53125-.265625 1.085938-.472657 1.667969-.617188l32.507813-8.125c4.339844-1.105469 8.761718 1.5625 9.847656 5.914063 1.09375 4.355468-1.554688 8.769531-5.914062 9.855468l-31.640626 7.910157-30.523437 15.265625-23.453125 23.449218c-1.585938 1.585938-3.667969 2.378907-5.746094 2.378907zm0 0" fill="#ff9811"/><path d="m151.753906 197.167969-89.398437-81.269531c-3.308594-3.015626-8.460938-2.773438-11.484375.542968-3.015625 3.320313-2.769532 8.464844.550781 11.480469l89.394531 81.269531c1.554688 1.414063 3.515625 2.113282 5.46875 2.113282 2.207032 0 4.414063-.894532 6.015625-2.65625 3.015625-3.320313 2.769531-8.464844-.546875-11.480469zm0 0" fill="#f40e34"/><path d="m81.269531 300.703125 40.632813-16.253906 16.253906-40.636719 16.253906 8.128906-16.253906 48.761719-24.378906 16.253906 8.125 65.011719-24.378906-16.25v-24.382812zm0 0" fill="#f40e34"/></svg>